<?xml version="1.0" encoding="utf-8" ?><svg xmlns="http://www.w3.org/2000/svg" xmlns:xlink="http://www.w3.org/1999/xlink" width="1024" height="1024" viewBox="0 0 1024 1024"><path fill="#00B4D8" d="M508.31 170.611C531.999 169.283 538.808 182.996 550.957 200.309C602.333 273.527 656.765 344.72 701.703 422.246C726.777 465.505 752.03 513.42 763.185 562.464C765.643 573.61 767.163 584.943 767.73 596.344C768.304 607.122 767.55 615.665 766.824 626.251C759.222 737.043 669.181 831.15 560.568 849.419C545.924 851.882 532.579 852.656 517.625 853.428C463.941 854.846 411.124 839.679 366.372 809.993C313.644 775.187 273.579 717.334 260.931 655.305C255.156 628.102 254.502 600.062 259.002 572.62C276.453 467.329 392.108 313.839 454.444 226.615C460.316 218.389 466.136 210.125 471.903 201.824C483.534 184.955 487.256 174.908 508.31 170.611ZM513.625 789.42C564.717 788.976 613.585 771.133 649.728 734.278C682.489 700.873 704.457 653.537 703.917 606.213C703.008 526.419 613.984 402.679 568.458 336.626C556.023 318.585 543.121 300.901 530.408 283.057C524.719 275.072 518.285 264.555 512.222 257.342C498.167 275.121 484.847 295.29 471.558 313.835C449.349 344.691 427.947 376.118 407.373 408.087C376.094 456.415 346.587 505.492 328.363 560.269C304.812 631.058 336.84 706.877 393.744 751.424C425.216 776.062 473.515 790.741 513.625 789.42Z"/></svg>