<?xml version="1.0" encoding="utf-8" ?><svg xmlns="http://www.w3.org/2000/svg" xmlns:xlink="http://www.w3.org/1999/xlink" width="1024" height="1024" viewBox="0 0 1024 1024"><path fill="#00B4D8" d="M252.08 232.705C264.76 231.114 278.53 234.671 290.139 239.535C379.036 276.782 404.413 445.935 441.293 462.62C442.953 463.37 444.829 463.907 446.578 463.06C457.695 457.679 459.927 391.262 461.802 377.689C462.779 370.616 464.653 362.8 467.388 356.213C472.352 344.329 481.906 334.954 493.882 330.215C506.254 325.273 520.086 325.476 532.308 330.778C559.639 342.484 561.939 372.823 564.146 398.404C565.092 409.367 566.173 420.319 567.39 431.256C568.371 439.361 569.475 447.842 572.572 455.442C573.68 458.162 575.202 462.378 578.261 463.313C579.993 463.842 581.787 463.306 583.346 462.519C618.885 444.567 642.734 288.983 726.209 243.458C745.569 232.899 768.527 229.421 789.887 235.756C809.682 241.628 825.132 255.532 834.892 273.501C873.924 345.359 842.094 504.364 819.336 580.599C804.379 634.194 780.447 692.576 747.4 736.895C720.611 772.823 680.399 796.094 635.616 780.874C603.36 769.911 585.3 744.939 570.355 715.808C556.499 688.8 537.912 664.923 504.587 669.475C464.328 674.794 457.019 719.419 434.974 746.117C417.777 767.325 398.007 781.904 370.29 785.213C347.109 788.25 321.339 778.969 303.538 764.483C275.223 741.44 256.378 708.912 240.928 676.564C205.673 602.752 185.05 517.372 175.223 436.378C169.19 386.65 164.239 303.784 196.925 261.544C211.071 243.262 229.554 235.253 252.08 232.705ZM793.834 514.89C807.458 452.45 818.715 380.692 807.296 317.19C803.196 294.392 789.093 269.054 761.837 273.879C727.271 279.999 705.306 318.099 690.302 346.61C677.672 370.596 667.275 396.14 656.815 421.092C642.05 456.313 618.104 512.744 570.393 503.994C520.235 494.795 527.765 421.077 521.431 383.138C517.628 360.357 504.874 363.941 502.422 383.834C496.294 427.553 503.062 512.986 435.602 503.881C418.04 501.529 405.574 489.688 395.579 475.472C389.401 466.574 383.94 457.2 379.247 447.437C356.826 401.106 319.797 282.938 262.764 273.741C259.872 273.275 256.171 273.24 253.268 273.64C242.973 275.135 234.861 279.576 228.62 288.021C201.825 324.279 213.331 418.804 220.012 461.338C226.123 500.663 234.952 539.518 246.434 577.623C260.378 623.759 316.528 787.266 390.732 733.326C405.128 722.862 416.678 696.102 426.157 680.776C442.065 654.485 464.532 634.507 495.303 629.432C537.921 622.403 573.063 640.757 595.399 676.663C610.95 700.376 619.723 731.046 648.681 741.927C679.501 753.508 706.293 725.855 721.925 702.368C751.448 658.009 769.353 605.545 784.115 554.644C787.891 541.625 790.291 527.925 793.834 514.89Z"/></svg>