<?xml version="1.0" encoding="utf-8" ?><svg xmlns="http://www.w3.org/2000/svg" xmlns:xlink="http://www.w3.org/1999/xlink" width="1024" height="1024" viewBox="0 0 1024 1024"><path fill="#00B4D8" d="M630.017 148.192C689.554 144.278 740.884 190.939 746.265 249.911C747.161 259.74 746.113 269.789 745.433 279.595C749.878 278.859 753.775 278.342 758.223 277.984C852.122 270.433 912.069 382.043 853.995 456.084C848.18 463.625 841.182 470.435 835.073 477.698C801.954 517.072 744.597 531.853 698.672 506.105C689.56 500.997 682.448 494.602 674.732 487.565C666.371 494.673 655.78 505.685 647.776 513.562L599.458 561.327C561.901 597.872 524.617 634.697 487.61 671.799C506.675 692.449 518.394 711.901 520.828 740.799C523.3 771.45 513.152 799.356 492.797 822.15C463.494 854.966 441.211 874.04 395.576 876.924C388.806 877.132 380.095 876.717 373.441 875.658C343.824 870.711 317.357 854.276 299.788 829.926C281.451 804.274 276.507 775.333 281.7 744.618C245.257 751.259 211.333 741.547 184.112 716.246C162.562 696.431 149.984 668.713 149.263 639.447C148.336 609.728 158.015 583.154 177.883 561.437C204.688 532.139 231.973 507.704 274.258 507.349C306.661 507.077 326.631 515.977 349.223 537.48C374.72 514.161 400.571 487.455 425.45 463.261C463.579 426.629 501.469 389.749 539.115 352.621C520.547 333.216 508.8 313.04 506.605 285.621C504.29 256.689 513 227.999 531.598 205.626C537.367 198.687 543.795 192.618 550.247 186.336C572.318 162.18 597.103 151.148 630.017 148.192ZM402.62 829.869C420.978 827.309 434.041 816.983 446.751 804.174C452.172 798.711 456.791 794.525 461.526 788.33C479.062 765.384 479.923 734.624 463.042 711.073C453.539 697.815 436.087 689.587 435.867 671.387C435.753 666.349 438.148 658.913 441.38 655.087C448.665 646.462 458.326 637.586 466.44 629.62L516.426 580.372L604.894 492.752L639.53 458.209C644.921 452.831 650.208 447.348 655.676 442.032C666.044 431.955 680.492 431.808 691.992 440.193C698.243 444.75 703.188 451.574 708.866 456.835C722.249 469.244 741.542 474.996 759.477 472.042C779.433 468.756 791.824 458.489 804.723 443.91C809.508 438.502 813.603 434.828 817.994 428.637C828.801 413.4 833.219 396.142 830.089 377.679C827.093 360.774 817.505 345.751 803.434 335.915C789.84 326.318 772.577 321.464 756.015 324.265C742.241 326.594 735.234 333.944 720.488 330.62C716.081 329.671 711.906 327.859 708.202 325.29C700.761 320.106 696.248 313.222 694.572 304.231C692.312 292.103 698.016 283.402 700.703 271.762C706.536 246.495 694.224 220.701 673.983 205.617C661.98 196.673 642.824 191.618 627.856 193.696C611.298 195.713 599.493 201.706 586.912 212.503C564.627 231.626 548.851 252.176 552.782 283.432C554.098 294.25 558.189 304.544 564.66 313.313C575.182 327.285 591.924 333.628 590.875 353.227C590.174 366.323 581.762 372.686 573.078 380.982C565.965 387.729 558.908 394.536 551.908 401.402C522.526 430.938 492.812 460.142 462.773 489.01C441.839 509.013 421.268 529.393 401.072 550.14C388.625 562.743 376.475 577.75 361.867 587.62C360.825 588.324 356.52 588.943 355.123 589.141C336.932 591.718 329.138 579.664 318.052 568.218C306.423 556.211 285.773 550.522 269.439 552.389C250.175 554.481 237.131 565.054 223.966 578.239C219.178 583.035 214.403 587.577 210.151 592.966C198.848 607.511 193.875 625.993 196.352 644.246C200.592 677.808 232.439 704.792 266.496 700.914C276.268 699.801 284.749 695.77 293.785 694.418C311.73 692.389 328.685 704.314 331.172 722.585C332.818 734.675 327.255 741.147 325.422 751.748C317.327 798.563 357.164 835.41 402.053 829.941L402.62 829.869Z"/></svg>