<?xml version="1.0" encoding="utf-8" ?><svg xmlns="http://www.w3.org/2000/svg" xmlns:xlink="http://www.w3.org/1999/xlink" width="1024" height="1024" viewBox="0 0 1024 1024"><path fill="#00B4D8" d="M501.872 127.781C508.383 127.318 514.794 127.658 521.303 127.949C579.518 130.551 640.401 157.649 673.213 207.654C720.933 280.379 708.32 390.778 632.96 440.838C658.788 442.265 690.811 432.873 714.729 422.904C724.478 418.841 734.96 411.723 745.491 408.66C752.534 406.559 760.13 407.415 766.529 411.032C778.212 417.742 783.037 436.702 776.07 448.12C774.189 451.264 771.722 454.017 768.803 456.231C752.418 468.806 708.072 483.194 687.584 488.17C694.162 495.474 699.858 501.067 706.156 509.03C731.823 541.008 747.216 580.003 750.313 620.891C751.897 642.295 751.291 661.21 751.302 682.498L751.157 782.882C751.139 800.504 751.082 818.114 751.09 835.758C751.095 847.776 752.036 860.518 750.969 872.498C750.662 877.991 747.651 883.406 744.07 887.481C738.581 893.739 731.377 896.039 723.479 896.727C712.778 897.659 699.104 887.306 697.327 876.667C696.313 870.597 696.806 860.021 696.872 853.509C697.001 842.594 697.019 831.679 696.926 820.764L696.887 693.376C696.801 620.768 700.801 576.531 643.821 522.368C627.751 509.044 617.943 504.714 600.262 495.233C601.734 507.099 602.06 521.385 599.649 533.175C598.69 537.861 596.837 543.024 595.521 547.769C631.892 581.571 651.414 621.257 653.833 671.501C656.007 716.651 640.084 763.58 608.951 796.798C576.588 831.913 531.343 852.368 483.602 853.469C433.136 855.37 384.012 836.971 347.211 802.385C292.902 751.068 268.143 681.901 254.722 610.056C249.288 581.288 246.042 552.151 245.009 522.893C242.747 433.687 257.229 333.056 300.721 253.788C309.935 236.996 329.543 211.089 342.808 197.238C384.283 153.568 441.65 128.518 501.872 127.781ZM598.329 697.633C602.83 663.494 595.193 631.783 574.088 604.185C571.369 600.624 568.495 597.184 565.473 593.875C548.959 610.373 524.837 624.577 501.766 624.714C477.722 624.857 466.538 591.83 485.052 575.961C492.594 569.497 502.226 570.731 510.978 566.837C531.342 558.729 546.42 535.752 547.511 514.508C548.298 496.97 542.072 479.839 530.208 466.898C519.456 455.206 512.065 452.657 497.22 449.231C484.352 446.261 474.469 433.518 475.444 420.33C476.862 401.146 490.887 393.146 508.598 395.081C526.457 397.032 546.892 407.42 560.104 419.054C596.864 403.97 624.453 387.888 639.196 349.83C663.399 287.351 634.143 216.79 570.848 192.827C551.354 185.447 519.995 177.767 499.777 180.725C450.6 184.343 406.36 203.388 374.514 242.212C309.48 321.497 293.945 441.053 299.937 540.185C303.352 596.689 320.249 669.46 349.394 717.779C360.726 736.411 374.837 753.202 391.238 767.573C464.254 830.398 583.628 795.921 598.329 697.633Z"/></svg>