<?xml version="1.0" encoding="utf-8" ?><svg xmlns="http://www.w3.org/2000/svg" xmlns:xlink="http://www.w3.org/1999/xlink" width="1024" height="1024" viewBox="0 0 1024 1024"><path fill="#00B4D8" d="M379.226 304.688C425.013 302.724 475.905 310.543 518.957 326.278C524.489 328.299 532.33 331.121 537.544 333.647C572.58 316.669 613.605 315.457 651.323 322.572C667.6 325.467 684.236 331.2 700.867 331.186C735 330.909 767.225 327.61 801.064 333.362C857.274 342.917 853.079 386.171 820.532 421.857C798.763 444.531 771.698 456.959 748.216 478.219C724.807 499.412 705.061 532.772 679.552 550.146C650.822 569.714 605.51 575.288 571.339 574.567C560.267 574.334 547.302 572.046 536.403 569.918C534.431 572.985 532.219 577.027 530.372 580.227C528.22 584.057 526.682 586.431 523.894 589.769C495.064 626.089 451.623 631.839 408.251 630.862C384.412 630.325 369.708 631.058 347.831 643.494C308.891 665.628 278.723 712.178 232.739 719.889C222.995 721.523 209.249 717.357 201.96 710.826C186.767 697.759 183.939 675.966 182.735 656.999C179.471 605.598 183.63 552.261 189.247 501.128C192.031 475.787 195.042 446.488 203.145 422.505C210.533 400.637 221.254 382.963 236.46 365.7C275.405 321.489 322.937 308.616 379.226 304.688ZM312.81 634.515C330.358 621.785 351.701 609.132 373.643 605.755C419.494 598.697 464.399 614.051 499.805 574.377C536.084 533.725 504.706 491.118 505.576 444.828C505.855 430.019 509.144 413.822 512.934 399.365C517.702 384.222 521.447 373.63 523.952 357.727C470.909 338.107 431.408 330.346 375.354 332.219C324.489 335.313 278.056 353.128 247.412 395.904C224.44 427.971 222.334 453.35 217.768 491.007C214.439 517.633 212.126 544.377 210.835 571.179C209.273 598.798 208.358 626.829 210.06 654.46C210.662 664.232 211.635 682.374 219.614 689.26C222.664 691.892 226.791 692.431 230.682 692.078C255.172 689.856 292.345 649.947 312.81 634.515ZM552.215 358.034C550.092 367.104 549.115 377.016 546.596 385.893C541.003 405.601 532.924 421.788 532.664 442.83C532.413 463.205 537.789 478.396 541.365 497.683C544.088 512.731 544.981 528.053 544.025 543.316C556.237 545.183 571.386 546.877 584.087 546.756C609.938 546.511 644.441 541.247 665.99 526.589C674.396 520.871 687.739 505.089 694.368 497.019C709.081 478.972 720.755 466.063 738.536 450.513C751.363 438.663 766.28 431.992 779.847 421.242C793.501 410.424 816.263 391.078 816.416 372.241C816.474 365.111 807.129 363.208 801.402 361.772C763.952 352.381 725.948 361.667 688.218 358.21C674.301 356.935 662.787 353.182 649.429 350.174C636.907 347.355 618.522 345.803 605.502 346.222C587.545 346.895 568.278 349.496 552.215 358.034Z"/><path fill="#00B4D8" d="M367.026 367.189C383.642 365.544 389.217 384.436 375.62 392.35C372.301 394.282 361.078 395.163 356.752 396.047C346.447 398.152 336.178 400.495 326.496 404.852C296.777 416.819 280.655 445.004 274.601 475.277C273.698 479.019 273.084 482.85 272.489 486.649C270.945 496.506 270.595 503.659 260.266 507.986C255.702 508.705 252.843 508.3 249.061 505.459C239.814 498.512 244.081 485.059 245.868 475.708C250.329 452.365 257.944 431.531 272.572 412.593C296.508 381.603 329.656 371.34 367.026 367.189Z"/></svg>