<?xml version="1.0" encoding="utf-8" ?><svg xmlns="http://www.w3.org/2000/svg" xmlns:xlink="http://www.w3.org/1999/xlink" width="1024" height="1024" viewBox="0 0 1024 1024"><path fill="#00B4D8" d="M388.221 308.718C397.618 307.842 413.316 313.492 419.896 320.619C437.68 339.88 440.537 368.872 440.183 393.875C477.924 385.866 518.34 385.482 556.731 388.402C590.567 390.976 624.346 395.852 658.48 394.469C683.873 393.44 711.857 389.854 736.917 385.028C759.882 380.365 781.146 371.25 804.996 372.037C834.962 373.027 854.229 391.729 853.197 422.014C852.277 449.011 829.362 475.119 810.615 492.564C771.547 528.823 724.503 555.39 673.278 570.122C653.47 575.677 630.084 579.913 609.728 582.647C593.548 584.821 587.169 588.941 570.682 588.329C573.18 590.532 576.843 593.743 579.087 596.07C616.86 635.249 628.407 712.104 628.647 763.562C628.72 777.816 630.501 799.846 623.854 812.631C619.2 821.584 604.27 819.541 595.302 819.587L550.286 819.712C540.617 819.752 530.718 820.454 521.116 819.864C514.683 818.957 507.354 813.924 506.245 807.234C505.029 799.9 506.513 793.045 506.641 785.731C506.683 783.34 506.98 780.746 506.877 778.44C506.237 764.129 505.645 749.38 503.887 735.166C497.412 738.638 489.001 744.882 481.806 748.926C459.05 761.482 433.884 769.053 407.977 771.138C260.542 782.702 160.793 682.677 171.079 535.988C178.395 431.648 245.06 345.101 346.757 317.02C360.826 313.136 373.619 309.819 388.221 308.718ZM537.611 789.233C554.399 789.163 571.188 789.239 587.975 789.459C591.145 789.424 594.316 789.419 597.487 789.444C597.772 772.287 598.57 756.291 597.136 738.79C593.707 696.932 585.246 650.204 557.001 617.413C544.965 603.438 519.085 595.858 504.38 610.817C495.795 619.551 489.663 633.424 482.031 643.125C467.391 664.003 441.082 678.057 416.546 683.206C405.945 685.431 397.575 685.449 387.191 685.661C355.317 686.313 324.142 674.038 301.704 651.289C296.425 645.938 294.686 642.987 290.638 636.61C275.516 612.319 267.583 584.243 267.756 555.631C267.857 534.263 271.798 510.66 280.813 491.182C285.789 480.429 298.544 464.227 306.813 455.686C325.032 436.871 351.703 427.246 376.993 422.908C384.553 421.551 395.047 421.116 402.041 419.57C412.675 401.232 413.916 352.952 394.082 340.114C391.931 340.107 389.108 340.001 387.032 340.217C375.04 340.949 362.584 344.134 351.129 347.658C312.979 359.394 280.116 379.619 253.577 409.571C217.021 450.827 197.391 511.889 200.773 566.766C203.709 614.407 221.402 664.84 257.964 696.994C297.377 731.656 351.271 743.803 402.63 740.369C431.351 738.448 460.663 729.197 483.772 711.74C490.344 706.776 497.036 698.331 504.983 695.823C511.61 693.731 518.872 696.168 524.029 700.529C533.615 708.635 536.47 754.233 537.262 767.599C537.689 774.816 537.688 782.007 537.611 789.233ZM371.302 568.6C385.225 560.524 394.309 557.587 407.886 547.318C431.624 529.364 435.262 514.32 436.154 484.893C436.599 470.232 454.235 464.91 463.046 476.313C468.11 482.866 466.392 491.054 465.017 498.343C497.437 478.323 528.669 472.688 566.291 472.34C574.48 472.264 588.201 473.674 595.76 471.843C608.87 469.656 613.296 446.524 625.254 444.586C642.349 441.816 648.742 457.594 639.76 470.86C658.458 468.793 675.735 463.701 693.203 456.992C701.471 453.816 726.374 440.757 733.371 446.452C762.896 470.48 705.64 486.246 689.929 490.488C692.539 494.02 695.019 497.128 696.137 501.535C697.999 508.875 692.001 517.404 684.697 518.822C674.415 520.817 667.529 512.943 660.336 507.119C657.1 504.499 654.227 502.454 650.678 500.18C618.331 505.456 583.942 501.636 551.314 502.993C542.427 503.363 531.438 505.839 522.556 507.4C529.826 513.52 540.829 523.187 536.922 534.2C535.604 537.916 531.525 541.972 527.842 543.439C515.93 548.182 509.298 535.104 501.695 528.766C497.216 525.059 492.672 523.032 487.518 520.826C470.783 528.297 454.727 546.127 441.652 558.291C436.83 562.777 430.184 567.097 424.891 571.662C426.704 572.761 428.022 573.458 429.929 574.388C430.784 574.857 432.825 576.04 433.621 576.375C442.701 581.404 449.588 590.553 442.377 600.302C434.127 611.454 423.851 605.086 414.419 599.851C409.659 597.43 400.19 593.664 394.685 594.473C380.965 596.491 367.009 603.242 353.265 606.61C338.814 610.151 326.584 611.651 312.202 613.693C333.173 652.918 381.187 662.173 421.808 649.724C469.042 635.249 463.255 590.889 506.687 573.533C542.426 559.252 581.45 556.239 619.34 550.498C688.229 540.059 754.664 509.135 802.334 457.583C816.451 442.498 843.6 401.548 800.124 402.241C780.983 402.546 756.081 412.593 736.612 416.246C700.779 422.754 661.817 426.469 625.405 424.864C598.119 423.661 569.828 419.583 542.484 417.907C511.819 416.095 481.048 417.8 450.771 422.989C446.787 423.642 438.717 425.044 435.233 426.607C430.221 428.855 427.364 436.162 423.22 440.05C418.114 444.841 411.841 447.528 405.506 450.306C407.767 498.394 394.376 528.255 371.302 568.6ZM374.809 454.603C357.217 458.785 344.265 463.213 330.646 475.586C300.846 502.66 291.968 543.293 301.06 581.89L301.19 582.433L301.617 583.568C305.1 584.261 321.203 581.905 325.202 581.093C340.543 564.563 361.545 525.257 368.943 503.523C373.288 490.759 375.146 470.385 375.374 456.455C375.387 455.641 375.351 455.069 374.809 454.603Z"/></svg>