<?xml version="1.0" encoding="utf-8" ?><svg xmlns="http://www.w3.org/2000/svg" xmlns:xlink="http://www.w3.org/1999/xlink" width="1024" height="1024" viewBox="0 0 1024 1024"><path fill="none" d="M0 0L1024 0L1024 1024L0 1024L0 0Z"/><path fill="#00B4D8" d="M425.968 173.109C431.412 173.115 436.017 173.962 440.1 177.898C442.549 180.297 444.26 183.348 445.03 186.689C446.17 191.572 445.571 212.201 445.55 218.245L445.54 264.157C445.519 275.465 445.125 287.257 446.094 298.596C450.551 350.752 473.979 402.943 517.451 433.873C520.486 436.033 531.821 442.485 533.861 445.36C543.362 459.288 544.864 483.75 545.004 500.561C545.682 581.931 463.94 675.553 377.975 638.284C369.511 634.615 365.009 629.525 357.985 625.471C326.655 607.384 281.779 621.288 257.657 645.7C220.033 683.151 224.844 735.7 224.597 783.548L260.498 783.513C260.317 754.187 257.2 728.572 278.43 704.81C291.401 690.292 308.281 682.995 327.568 682.315C336.56 681.998 348.874 681.509 355.846 688.122C361.941 693.903 361.634 700.853 364.127 708.257C365.555 712.5 367.52 717.319 369.451 721.322C377.979 738.599 389.8 754.044 404.249 766.789C446.904 805.151 514.674 817.145 570.449 815.135C628.932 813.027 682.283 791.63 721.261 746.78C776.591 683.116 802.66 593.123 798.37 509.403C796.189 470.151 780.275 429.198 750.233 403.318C719.753 377.06 685.264 369.373 646.158 370.238C623.875 370.731 606.486 373.101 585.207 379.913C580.654 381.417 576.214 383.242 571.919 385.374C566.499 388.096 557.171 394.414 551.496 393.909C502.319 389.526 482.334 330.585 480.712 288.331C480.536 267.351 480.705 246.532 480.766 225.53C480.803 212.672 480.3 199.001 481.307 186.177C481.496 183.771 483.767 180.285 485.442 178.571C488.829 175.069 493.51 173.119 498.381 173.179C503.209 173.234 507.658 175.397 510.96 178.874C513.089 181.133 514.59 183.91 515.312 186.929C516.525 191.87 515.952 213.5 515.931 220.25L515.906 261.753C515.898 285.402 514.923 305.487 523.792 328.268C529.289 342.383 535.756 351.654 549.634 357.943C557.088 353.707 564.889 350.114 572.953 347.205C620.294 330.068 689.291 329.804 735.19 351.864C776.463 371.699 806.313 406.285 821.346 449.474C847.554 524.766 829.307 623.535 796.581 693.686C767.218 756.301 720.449 811.012 653.654 834.699C583.02 859.747 495.186 854.628 426.965 823.729C381.05 802.933 347.076 764.563 330.113 717.104C324.201 717.525 318.035 718.537 312.813 721.482C295.226 731.401 295.442 748.341 295.456 765.716L295.596 790.686C295.667 800.332 296.856 811.457 286.273 816.509C283.953 817.547 280.622 818.495 278.068 818.495C254.694 818.498 231.36 818.496 207.979 818.507C199.224 818.803 190.36 811.44 190.405 802.315C190.53 777.267 189.456 750.754 190.754 725.805C191.186 717.635 192.022 709.492 193.259 701.405C195.11 689.282 198.415 677.426 203.103 666.093C216.755 632.745 243.098 606.189 276.335 592.269C305.051 580.331 341.081 577.668 369.607 591.755C378.654 595.963 386.238 603.785 395.598 607.287C442.574 624.949 486.687 581.826 502.123 540.926C508.327 524.489 511.031 508.013 509.919 490.438C509.5 483.812 508.606 474.946 505.904 468.864C460.168 438.075 430.573 393.734 417.819 340.133C414.562 326.775 412.343 313.184 411.184 299.484C409.71 281.147 410.551 254.091 410.522 235.148L410.476 205.971C410.464 191.601 407.609 176.659 425.968 173.109Z"/></svg>