<?xml version="1.0" encoding="UTF-8"?>
<!--Generator: Apple Native CoreSVG 341-->
<!DOCTYPE svg
PUBLIC "-//W3C//DTD SVG 1.1//EN"
       "http://www.w3.org/Graphics/SVG/1.1/DTD/svg11.dtd">
<svg version="1.1" xmlns="http://www.w3.org/2000/svg" xmlns:xlink="http://www.w3.org/1999/xlink" viewBox="0 0 19.9198 19.9218">
 <g>
  <rect height="19.9218" opacity="0" width="19.9198" x="0" y="0"/>
  <path d="M9.95468 19.9094C15.4553 19.9094 19.9197 15.4553 19.9197 9.95469C19.9197 4.45409 15.4553 0 9.95468 0C4.46443 0-8.88178e-16 4.45409-8.88178e-16 9.95469C-8.88178e-16 15.4553 4.46443 19.9094 9.95468 19.9094ZM9.95468 18.2559C5.36576 18.2559 1.66173 14.5436 1.66173 9.95469C1.66173 5.36574 5.36576 1.6535 9.95468 1.6535C14.5436 1.6535 18.2559 5.36574 18.2559 9.95469C18.2559 14.5436 14.5436 18.2559 9.95468 18.2559Z" fill="#00B4D8" fill-opacity="0.5"/>
  <path d="M4.75105 9.2003C4.75105 10.1786 5.25962 10.9343 5.93463 10.9343C6.59928 10.9343 7.12033 10.1786 7.12033 9.2003C7.12033 8.23025 6.59928 7.4642 5.93463 7.4642C5.25962 7.4642 4.75105 8.23025 4.75105 9.2003ZM7.14524 6.34715C7.14524 7.31718 7.67666 8.08323 8.34131 8.08323C9.00594 8.08323 9.52698 7.31718 9.52698 6.34715C9.52698 5.37921 9.00594 4.62352 8.34131 4.62352C7.67666 4.62352 7.14524 5.3771 7.14524 6.34715ZM10.3762 6.34715C10.3762 7.31718 10.8973 8.08323 11.562 8.08323C12.2266 8.08323 12.758 7.31718 12.758 6.34715C12.758 5.3771 12.2266 4.62352 11.562 4.62352C10.8973 4.62352 10.3762 5.37921 10.3762 6.34715ZM12.7829 9.2003C12.7829 10.1786 13.304 10.9343 13.9686 10.9343C14.6436 10.9343 15.1522 10.1786 15.1522 9.2003C15.1522 8.23025 14.6436 7.4642 13.9686 7.4642C13.304 7.4642 12.7829 8.23025 12.7829 9.2003ZM6.23941 13.022C6.23941 14.0227 6.90617 14.7349 7.90497 14.7349C8.38883 14.7349 8.73985 14.606 9.07417 14.4772C9.36289 14.3836 9.62247 14.2922 9.94645 14.2922C10.2683 14.2922 10.5383 14.3836 10.8166 14.4772C11.1613 14.606 11.5123 14.7349 11.9983 14.7349C12.9949 14.7349 13.6617 14.0227 13.6617 13.022C13.6617 12.1766 13.1589 11.7423 12.6708 11.3415C12.4091 11.1275 12.1413 10.9199 11.9525 10.6335C11.801 10.428 11.691 10.1748 11.5831 9.94836C11.2301 9.18634 10.9473 8.47967 9.94645 8.47967C8.95169 8.47967 8.67101 9.18845 8.3202 9.94836C8.21015 10.1727 8.10222 10.4238 7.9529 10.6272C7.76196 10.9178 7.49415 11.1275 7.23036 11.3415C6.74227 11.7423 6.23941 12.1766 6.23941 13.022Z" fill="#00B4D8"/>
 </g>
</svg>
