<?xml version="1.0" encoding="utf-8" ?><svg xmlns="http://www.w3.org/2000/svg" xmlns:xlink="http://www.w3.org/1999/xlink" width="1024" height="1024" viewBox="0 0 1024 1024"><path fill="#00B4D8" d="M140.292 108.637C154.189 107.536 171.532 108.955 185.663 108.756C196.778 108.6 214.116 106.982 223.824 111.62C230.142 114.679 234.986 120.124 237.287 126.756C240.06 134.546 240.297 157.498 241.389 167.222C244.337 193.457 248.018 220.014 256.886 244.988C314.63 197.248 387.614 179.587 460.745 172.722C531.503 166.079 620.128 173.595 686.734 198.949C715.935 209.743 743.159 225.269 767.317 244.905C780.879 208.611 781.284 168.926 785.73 131.029C787.071 119.6 798.947 109.307 810.485 109.027C827.061 108.624 843.982 109.272 860.619 108.593C914.629 104.648 910.305 129.159 907.903 171.821C904.167 238.181 888.432 308.444 842.588 359.159C865.186 445.382 847.166 538.829 789.944 607.799C761.818 641.704 724.564 666.515 686.101 687.156C669.95 695.824 654.1 703.7 638.447 713.251C607.511 732.126 596.25 753.197 589.963 787.765C587.903 799.129 586.457 810.596 585.631 822.115C584.816 833.882 584.828 848.908 582.104 859.984C577.243 879.222 564.952 895.748 547.926 905.94C531.321 915.584 511.533 918.137 493.024 913.025C482.109 910.084 472.079 904.519 463.808 896.815C441.59 876.46 440.039 854.55 438.445 826.533C436.838 798.276 432.674 763 415.624 739.715C399.18 718.499 371.478 705.018 348.066 692.714C291.607 663.043 242.126 629.744 209.411 573.072C172.536 508.297 162.487 431.658 181.415 359.566C148.755 320.543 132.429 279.861 123 229.875C118.065 203.057 115.557 175.848 115.507 148.579C115.493 142.868 115.086 136.078 116.058 130.55C116.695 126.776 118.172 123.192 120.379 120.065C125.28 113.178 132.27 110.043 140.292 108.637ZM773.903 536.202C797.585 488.343 804.376 434.575 793.341 382.292C791.798 372.073 784.492 356.511 787.279 346.369C790.45 334.83 803.682 324.202 811.029 314.286C841.823 272.721 850.801 221.102 854.956 170.72C855.236 167.334 855.546 163.916 855.572 160.546C849.225 160.656 842.876 160.695 836.528 160.664C831.594 205.108 827.88 248.043 805.765 288.055C797.555 302.91 789.052 316.045 769.692 313.742C765.377 313.21 761.268 311.588 757.752 309.03C752.371 305.163 745.221 296.592 739.828 291.49C726.398 278.783 710.358 268.362 693.966 259.924C601.876 212.521 443.718 211.955 349.165 250.843C330.559 258.482 313.048 268.554 297.091 280.796C291.381 285.213 285.926 289.95 280.754 294.986C270.506 305.095 263.275 316.04 246.491 313.891C238.036 312.808 230.715 307.561 225.938 300.669C200.28 263.644 189.945 204.457 187.948 160.628C181.433 160.589 174.689 160.638 168.195 160.485C172.204 212.385 179.551 267.195 210.623 310.895C213.319 314.753 216.213 318.469 219.292 322.03C222.849 326.08 226.723 329.971 230.385 333.96C243.242 347.963 235.548 363.267 231.451 379.735C230.19 384.89 229.147 390.096 228.326 395.339C220.378 446.083 229.363 501.091 255.256 545.552C283.13 593.415 330.847 623.94 379.038 648.345C396.889 657.385 414.418 667.441 430.472 679.379C478.184 714.961 488.089 767.343 492.3 822.976C493.152 834.223 491.523 850.852 500.143 857.771C504.201 861.029 507.973 862.803 513.245 862.336C518.183 861.906 522.737 859.495 525.869 855.653C533.385 846.548 531.147 827.226 532.288 815.532C535.991 777.609 541.99 737.584 565.853 706.477C586.131 680.112 616.569 662.981 645.663 648.08C700.089 620.204 744.453 591.759 773.903 536.202Z"/></svg>