<?xml version="1.0" encoding="utf-8" ?><svg xmlns="http://www.w3.org/2000/svg" xmlns:xlink="http://www.w3.org/1999/xlink" width="24" height="24" viewBox="0 0 1024 1024"><path fill="#00B4D8" d="M401.353 106.162C407.952 105.309 414.319 107.866 414.624 115.409C416.731 167.582 411.191 221.349 418.745 273.143C427.311 331.879 460.115 390.445 511.87 421.325C522.144 426.248 529.93 427.874 526.911 441.833C523.377 458.172 528.757 473.519 530.987 489.432C534.432 514.02 528.873 541.519 518.007 563.731C503.305 594.123 477.14 617.436 445.26 628.549C418.576 637.611 388.075 638.229 361.984 626.669C353.186 622.227 345.245 616.961 336.414 612.457C279.427 583.391 212.812 606.328 184.875 664.222C175.694 683.383 170.273 704.127 168.908 725.33C168.415 731.971 168.665 739.4 168.039 745.75C166.766 758.669 162.924 768.627 167.78 781.547C171.498 791.438 178.77 800.023 188.447 804.439C197.34 808.576 207.543 808.874 216.663 805.264C239.691 796.345 241.795 778.034 240.886 757.216C240.386 745.776 243.137 721.972 247.673 712.039C252.765 700.849 262.083 692.134 273.588 687.801C295.929 679.584 318.019 690.145 329.459 710.279C334.112 718.396 335.85 727.717 340.596 735.82C365.616 778.536 403.322 808.171 448.095 828.158C594.521 893.522 751.325 799.64 811.561 661.946C842.421 591.597 855.481 514.935 828.2 441.54C790.102 339.046 670.845 282.235 576.037 350.124C570.581 354.031 566.135 358.837 559.782 361.285C545.371 359.32 524.819 344.784 514.097 335.233C464.299 290.874 472.389 222.717 472.51 162.311L472.572 134.255C472.594 127.516 471.449 114.573 475.892 109.305C479.247 105.326 487.565 104.577 491.188 108.608C495.628 113.547 494.467 123.856 494.396 130.244C494.44 133.911 494.305 137.508 494.211 141.173C493.43 169.264 494.489 197.443 494.439 225.518C494.399 248.328 497.258 270.447 507.908 290.99C516.353 307.279 528.719 321.726 544.805 330.863C548.567 333 551.967 335.397 556.152 336.72C558.91 335.532 563.088 332.636 565.623 330.814C640.257 277.175 740.012 293.579 802.027 359.345C915.238 479.401 860.611 682.484 751.225 785.758C695.754 838.129 618.972 874.124 541.643 871.732C453.652 868.994 360.966 821.122 319.141 741.728C314.55 732.969 313.513 722.82 306.297 715.363C301.529 710.4 294.937 707.606 288.054 707.631C279.737 707.728 270.29 713.105 267.609 721.161C257.089 752.772 272.551 784.815 246.732 811.744C235.715 823.142 220.591 829.651 204.739 829.816C170.641 830.446 142.783 800.589 143.179 767.421C142.621 758.561 145.857 749.637 146.208 740.995C148.064 695.261 157.021 651.48 190.827 617.345C229.443 578.487 287.828 567.061 338.243 588.494C349.716 593.271 356.498 598.257 366.577 604.406C376.07 610.196 395.183 613.912 406.249 613.534C433.426 612.604 460.063 600.609 478.96 581.347C501.106 558.83 512.368 527.798 509.818 496.318C509.135 487.953 507.113 478.821 505.934 470.399C504.534 460.392 504.41 452.259 504.329 442.231C463.042 419.827 432.003 379.812 414.18 336.877C389.241 276.802 393.189 216.211 393.372 152.688C393.394 145.103 392.182 117.309 394.733 111.645C396.077 108.662 398.379 107.25 401.353 106.162Z"/><path fill="#00B4D8" d="M724.3 408.618C732.982 407.78 741.306 408.904 748.872 413.462C757.992 419.012 764.548 427.94 767.113 438.303C769.464 447.996 767.285 461.519 766.307 471.601L762.011 513.619L758.401 549.975C756.61 567.914 756.931 588.563 734.948 593.962C718.616 596.995 704.381 587.108 702.037 570.918C700.705 561.714 700.171 552.74 699.329 543.51L695.066 499.855L691.768 466.066C691.244 460.748 689.932 449.358 690.286 444.216C690.761 437.32 693.092 430.681 697.034 425.003C703.713 415.475 713.123 410.665 724.3 408.618ZM732.784 571.8C733.82 569.839 734.528 567.728 734.763 565.511C738.783 527.526 742.856 489.556 746.331 451.51C747.559 438.065 740.443 429.17 726.369 430.091C720.88 431.709 717.914 433.091 714.687 438.445C713.565 440.309 712.391 443.728 712.47 445.872C712.894 457.437 714.336 469.498 715.335 481.021C716.881 500.051 718.578 519.069 720.426 538.072C721.405 548.782 721.94 559.969 724.337 570.43C724.978 573.229 730.859 572.329 732.784 571.8Z"/><path fill="#00B4D8" d="M723.503 611.9C744.44 608.829 763.88 623.371 766.848 644.322C769.816 665.273 755.179 684.642 734.214 687.507C713.393 690.353 694.187 675.839 691.24 655.033C688.292 634.226 702.712 614.949 723.503 611.9ZM732.655 665.669C741.48 663.556 746.889 654.651 744.695 645.845C742.501 637.039 733.546 631.713 724.761 633.989C716.09 636.234 710.847 645.048 713.013 653.739C715.179 662.431 723.944 667.754 732.655 665.669Z"/></svg>