<?xml version="1.0" encoding="utf-8" ?><svg xmlns="http://www.w3.org/2000/svg" xmlns:xlink="http://www.w3.org/1999/xlink" width="1024" height="1024" viewBox="0 0 1024 1024"><path fill="#00D2D3" d="M513.261 247.202C540.273 245.835 561.444 251.527 583.487 267.978C587.767 271.172 591.215 274.958 595.173 278.532C628.405 267.875 669.236 283.045 687.04 313.094C689.281 316.876 691.151 320.777 693.06 324.73C712.037 330.016 722.309 338.542 731.824 355.382C760.727 363.406 791.653 375.443 813.904 396.325C829.795 411.238 832.368 428.85 838.192 448.941C844.105 469.134 849.91 489.358 855.605 509.614L876.739 583.879C881.75 601.493 891.712 629.947 891.841 647.167C891.99 667.081 883.646 683.457 869.807 697.39C802.505 765.15 608.882 776.357 516.125 776.89C420.484 777.774 276.515 766.547 191.605 722.363C168.666 710.427 144.232 692.11 136.286 666.447C133.138 656.279 132.489 645.96 134.186 635.458C136.586 620.613 141.912 605.724 146.159 591.277L166.885 520.603L187.446 451.682C190.194 442.536 196.436 419.796 200.44 412.543C217.036 382.474 257.731 366.396 289.005 356.826C303.984 326.904 331.775 312.849 364.741 314.076C369.608 306.123 375.801 299.062 383.05 293.199C402.358 277.869 424.316 273.942 448.168 276.636C463.828 258.474 489.847 248.863 513.261 247.202ZM254.422 418.556C246.878 423.283 234.515 430.436 241.472 440.694C242.807 442.647 244.299 444.487 245.934 446.197L251.247 451.56C247.282 440.126 247.559 436.197 252.109 424.643C252.324 424.099 254.412 418.637 254.422 418.556ZM771.837 419.288C775.873 426.807 778.411 439.827 776.007 448.149C775.641 449.418 775.215 450.668 774.729 451.895C777.571 449.79 778.683 448.645 781.156 446.143C784.64 442.464 786.185 440.096 787.902 435.208C785.253 429.756 777.043 421.591 771.837 419.288ZM513.635 500.524C589.767 500.531 683.962 494.654 753.818 463.613C733.984 457.413 737.586 451.288 733.127 434.467C731.928 429.941 724.717 424.848 720.43 423.736C710.445 421.254 700.626 421.784 695.171 411.047C687.988 397.411 702.71 387.4 693.199 373.477C691.292 370.295 686.678 366.639 683.085 365.955C674.881 364.393 660.968 363.943 657.531 354.024C651.454 336.485 650.194 327.924 631.031 320.58C610.891 312.862 601.059 329.583 582.287 325.825C571.949 323.621 568.958 314.12 562.628 307.024C551.531 294.585 532.418 287.658 515.893 289.701C500.854 291.418 488.736 295.499 478.478 307.65C472.405 314.842 470.181 321.528 458.775 322.793C452.202 323.522 446.751 320.793 440.511 319.683C427.583 317.128 413.142 322.665 404.954 332.263C397.516 340.983 392.454 361.125 378.934 359.528C360.776 357.384 346.957 352.84 332.621 368.615C327.873 373.84 323.688 381.662 324.387 389.44C325.449 400.682 330.37 407.072 321.878 417.521C315.147 425.802 303.074 422.005 297.046 429.234C286.145 442.308 298.083 456.559 273.444 463.629C285.903 468.33 298.952 473.898 311.754 477.439C377.547 495.638 445.663 500.412 513.635 500.524ZM814.37 682.478C825.331 676.724 844.457 664.489 847.618 651.864C849.218 645.47 841.103 620.849 838.988 613.247C834.575 596.923 830.061 580.625 825.447 564.357L811.685 515.633C808.962 506.06 806.166 495.42 802.919 486.09C784.981 498.87 765.985 508.082 745.205 515.319C644.169 550.506 469.877 551.791 363.767 534.018C322.362 527.084 254.157 512.025 222.844 483.767C212.322 522.96 200.767 561.9 189.82 600.981C186.483 612.892 178.48 635.576 177.582 646.965C177.282 650.777 178.684 654.454 180.529 657.724C194.773 682.953 256.422 701.398 283.836 708.439C409.875 740.812 619.837 740.236 745.464 707.623C768.967 701.522 792.971 694.211 814.37 682.478Z"/><path fill="#00D2D3" d="M626.317 406.67C634.039 405.778 643.557 407.432 650.082 411.842C656.398 416.193 660.746 422.856 662.184 430.39C667.586 457.669 639.933 481.847 615.314 486.426C556.986 490.853 570.562 415.519 626.317 406.67ZM610.136 455.878C619.348 454.429 629.327 447.679 631.432 438.19L631.138 437.157L629.806 437.095C620.271 438.866 610.747 445.012 608.737 455.083L609.277 455.854L610.136 455.878Z"/><path fill="#00D2D3" d="M550.706 320.167C602.919 317.643 630.461 390.241 576.104 398.975C520.516 400.192 496.459 327.755 550.706 320.167ZM574.5 368.8C571.986 357.888 563.023 349.735 551.499 350.526C550.832 359.531 562.911 368.256 571.014 368.725C572.175 368.784 573.337 368.809 574.5 368.8Z"/><path fill="#00D2D3" d="M500.964 411.221C509.012 411.003 516.84 412.595 523.723 417.235C539.776 428.056 551.613 455.669 539.604 473.134C532.045 484.125 520.333 486.883 507.886 489.076C497.713 490.356 485.32 489.744 477.569 482.425C451.679 457.977 464.233 413.934 500.964 411.221ZM506.885 457.507C509.575 456.944 511.38 456.476 514 455.707C511.998 449.617 509.56 441.673 501.959 442.011L501.542 442.027C497.39 444.608 492.287 449.521 495.476 455.178C497.858 459.404 502.855 458.331 506.885 457.507Z"/><path fill="#00D2D3" d="M457.98 324.732C471.658 323.816 484.77 330.33 492.302 341.784C499.835 353.237 500.621 367.857 494.362 380.053C488.102 392.248 475.765 400.132 462.068 400.689C441.273 401.535 423.659 385.51 422.541 364.728C421.422 343.945 437.214 326.123 457.98 324.732ZM460.575 369.375C462.062 369.439 463.954 369.876 464.991 368.649C468.909 364.019 468.313 354.234 460.617 354.45C454.171 359.938 447.966 366.685 460.575 369.375Z"/><path fill="#00D2D3" d="M379.337 372.184C386.447 371.483 393.37 371.878 397.802 378.341C399.812 381.27 401.121 384.427 400.391 387.997C397.853 400.409 388.779 399.092 379.208 401.88C376.489 402.751 369.955 407.798 366.896 409.834C350.215 416.393 340.994 398.677 350.358 386.432C356.417 378.51 369.518 373.3 379.337 372.184Z"/><path fill="#00D2D3" d="M407.418 436.607C414.302 436.252 421.482 439.855 423.717 446.792C426.396 455.345 419.743 460.252 415.811 466.292C410.982 473.71 411.633 479.114 401.747 481.936C378.245 482.981 383.646 458.173 393.62 446.482C398.36 440.926 399.566 438.072 407.418 436.607Z"/><path fill="#00D2D3" d="M637.054 341.154C646.747 341.253 649.667 344.925 654.753 352.633C661.957 363.551 662.96 376.191 648.044 380.662C636.628 380.935 635.253 375.906 629.643 367.598C622.819 357.491 622.113 343.722 637.054 341.154Z"/></svg>