<?xml version="1.0" encoding="utf-8" ?><svg xmlns="http://www.w3.org/2000/svg" xmlns:xlink="http://www.w3.org/1999/xlink" width="1024" height="1024" viewBox="0 0 1024 1024"><path fill="#00D2D3" d="M591.177 370.999C584.255 364.202 580.804 354.595 576.363 346.667C564.383 325.279 580.253 319.21 596.545 310.892C599.211 309.531 601.994 307.544 604.908 306.399C607.004 305.571 609.246 305.174 611.499 305.233C615.358 305.311 617.675 306.917 620.277 309.684C624.669 314.355 637.75 338.69 637.642 344.225C637.568 348.026 635.239 353.035 632.42 355.589C625.774 361.611 613.966 366.734 605.928 371.09C612.68 370.067 619.773 371.148 626.724 370.858C643.686 370.152 661.022 370.293 677.968 370.62C686.381 370.782 690.085 375.78 690.499 383.918C691.029 394.316 689.866 405.945 691.068 416.425C692.322 425.032 694.913 434.693 696.781 443.304C700.266 459.235 703.502 475.221 706.487 491.254C715.684 540.1 723.939 603.919 722.93 654.262C722.458 674.751 720.697 695.19 717.657 715.458C714.233 739.522 712.558 764.342 686.844 775.053C669.403 782.318 649.752 788.566 630.853 790.534C623.88 791.075 611.652 790.661 604.607 790.645L562.502 790.647L441.688 790.708L388.559 790.706C373.075 790.817 349.321 792.378 335.093 786.126C326.134 782.189 317 770.386 314.095 761.247C311.278 752.58 309.894 741.941 308.616 732.833C305.289 709.272 303.136 685.56 302.165 661.786C300.152 611.098 306.006 560.411 313.955 510.423C315.506 500.67 317.077 490.641 318.978 480.956C321.723 467.147 324.622 453.37 327.674 439.625C329.636 431.122 331.721 422.438 333.569 414.081C336.451 401.053 325.781 371.586 346.609 370.965C360.271 370.558 373.606 370.517 387.249 370.762C408.983 371.03 431.385 370.187 452.975 370.618C448.74 358.703 453.499 350.92 465.793 347.126C474.793 344.347 488.163 337.3 497.707 341.045C503.994 344.449 509.945 364.404 511.549 371.18C518.112 371.11 524.676 371.097 531.239 371.14C534.768 367.512 539.656 362.831 542.929 359.186C546.065 356.184 547.62 354.698 551.142 352.248C561.022 348.737 565.028 350.951 572.014 358.588C575.873 362.808 580.06 367.418 584.331 371.165L591.177 370.999ZM589.992 769.417C599.96 769.056 612.207 769.238 622.275 769.516C624.557 678.027 631.46 600.122 648.24 510.041C653.473 481.836 659.561 453.796 666.498 425.961L399.625 425.751C384.563 425.847 367.534 425.479 352.639 425.94C351.093 435.738 348.192 445.883 346.067 455.481C325.67 547.637 314.539 642.414 330.972 736.161C333.679 751.604 333.743 766.944 354.29 768.665C382.729 770.025 411.894 769.113 440.338 769.107L563.003 769.273C571.975 769.258 581.042 769.534 589.992 769.417ZM660.421 761.627C667.783 758.952 688.262 753.287 690.206 745.588C709.879 667.67 700.675 585.585 688.127 507.637C686.409 496.712 684.384 485.838 682.056 475.027C681.44 472.119 680.195 465.204 679.027 462.761C675.592 482.803 670.617 503.144 667.259 523.077C662.21 553.048 656.967 583.718 653.377 613.897C649.405 649.26 646.58 684.742 644.905 720.288C644.149 734.775 642.434 752.861 642.42 766.938C648.433 765.209 654.433 763.438 660.421 761.627ZM486.681 358.459C480.729 360.463 474.988 363.308 469.51 365.118C469.914 366.997 470.263 368.803 470.837 370.643L476.375 370.611C481.316 370.632 488.402 370.452 493.172 370.744C492.192 368.161 489.627 359.496 487.737 358.537L486.681 358.459ZM600.672 353.909C606.459 350.983 613.812 347.067 619.378 343.753C618.013 341.193 610.21 326.083 608.589 325.001C602.374 328.143 596.342 331.693 590.301 335.161C591.809 338.266 598.391 352.6 600.29 353.94L600.672 353.909ZM354.513 391.648L354.496 404.92C362.479 404.091 377.501 404.575 386.178 404.574L445.348 404.572L629.856 404.52C633.791 404.513 668.176 404.93 669.831 404.213L669.786 403.12C669.938 399.284 670.045 395.446 670.108 391.607L455.132 391.902L379.781 391.756C371.732 391.68 362.373 391.98 354.513 391.648Z"/><path fill="#00D2D3" d="M470.083 270.611C471.712 270.472 476.79 270.105 478.47 270.917C487.575 275.444 501.731 289.536 507.172 297.683C514.632 308.853 487.729 333.682 478.918 337.705C470.349 338.947 463.527 333.033 458.158 327.283C444.712 312.883 430.752 305.491 450.28 288.015C458.293 280.843 458.423 275.711 470.083 270.611ZM459.563 304.272C461.6 306.182 474.576 318.668 475.855 319.073C480.724 314.387 485.677 308.819 490.546 304.465C486.932 301.214 477.413 291.394 474.228 289.406L459.563 304.272Z"/><path fill="#00D2D3" d="M552.62 248.615C563.781 247.688 570.642 254.335 579.555 259.873C586.103 263.941 590.956 267.342 593.869 274.636C593.249 282.548 589.22 288.37 585.22 295.013C580.801 302.351 577.211 310.898 568.884 314.322C567.281 314.677 564.164 315.097 562.61 314.544C552.214 310.84 532.587 300.748 527.712 290.613C524.93 284.827 535.483 268.618 538.673 263.328C542.222 257.443 545.857 250.989 552.62 248.615ZM546.175 285.69C548.693 287.023 562.9 295.347 563.932 295.373L564.103 295.27C567.552 289.756 571.221 283.601 574.797 278.232C569.083 274.103 562.684 270.869 556.775 266.801C553.109 272.999 549.775 279.71 546.175 285.69Z"/><path fill="#00D2D3" d="M417.749 309.854C432.926 307.781 446.908 318.408 448.974 333.585C451.039 348.763 440.406 362.74 425.227 364.798C410.059 366.856 396.094 356.231 394.029 341.063C391.965 325.896 402.583 311.925 417.749 309.854ZM422.249 345.842C425.31 345.507 427.946 343.529 429.122 340.683C430.298 337.837 429.829 334.576 427.897 332.177C425.965 329.779 422.879 328.625 419.848 329.168C415.376 329.968 412.344 334.169 412.991 338.665C413.639 343.161 417.733 346.335 422.249 345.842Z"/><path fill="#00D2D3" d="M541.672 356.976C526.546 361.797 511.178 357.003 505.846 340.797C503.458 333.705 504.044 325.95 507.468 319.297C524.215 287.506 576.408 312.347 551.433 349.844C548.261 352.911 545.681 354.962 541.672 356.976ZM533.721 339.166C537.858 337.92 540.253 333.609 539.125 329.438C537.997 325.268 533.756 322.752 529.555 323.761C526.729 324.44 524.496 326.6 523.724 329.402C522.951 332.203 523.763 335.203 525.842 337.233C527.921 339.264 530.939 340.004 533.721 339.166Z"/><path fill="#00D2D3" d="M500.536 227.936C515.126 224.888 529.412 234.286 532.39 248.89C535.368 263.494 525.903 277.735 511.285 280.644C496.765 283.534 482.639 274.145 479.681 259.639C476.723 245.133 486.044 230.963 500.536 227.936ZM508.336 262.54C516.922 257.441 515.673 245.721 504.156 246.561C494.2 252.754 497.12 263.013 508.336 262.54Z"/><defs><linearGradient id="gradient_0" gradientUnits="userSpaceOnUse" x1="540.83527" y1="355.30331" x2="545.56348" y2="358.75742"><stop offset="0" stop-color="#00D2D3" stop-opacity="0"/><stop offset="1" stop-color="#00D2D3" stop-opacity="0.050980393"/></linearGradient></defs><path fill="url(#gradient_0)" d="M541.672 356.976C545.681 354.962 548.261 352.911 551.433 349.844C551.676 351.146 551.708 351.057 551.142 352.248C547.62 354.698 546.065 356.184 542.929 359.186C540.37 359.433 539.218 362.291 535.485 364.207C535.933 362.615 540.177 358.27 541.672 356.976Z"/></svg>