<?xml version="1.0" encoding="utf-8" ?><svg xmlns="http://www.w3.org/2000/svg" xmlns:xlink="http://www.w3.org/1999/xlink" width="1024" height="1024" viewBox="0 0 1024 1024"><path fill="#00D2D3" d="M416.487 170.206C418.156 170.077 419.826 169.985 421.498 169.931C429.256 169.758 436.993 170.787 444.435 172.98C462.321 178.351 479.819 188.294 496.219 197.078C515.394 207.348 534.644 215.805 550.512 231.098C563.543 220.743 577.396 209.317 593.327 204.347C610.685 198.862 629.51 200.494 645.664 208.885C664.347 218.795 678.291 235.765 684.389 256.016C692.603 282.948 685.095 304.707 672.511 328.448C712.727 336.231 760.12 348.055 791.36 376C809.624 392.337 806.187 416.548 806.103 438.952L806.028 497.705L806.015 739.846C806.002 759.277 804.613 774.863 790.176 789.156C740.875 837.961 594.998 853.618 527.125 853.538C445.113 853.996 350.277 846.451 273.499 814.429C260.131 808.449 247.201 801.573 236.103 792.052C214.351 773.39 217.731 752.391 217.771 726.325L217.853 674.018C217.579 618.108 217.599 562.196 217.914 506.286C218.047 485.809 217.633 465.292 217.766 444.792C217.85 431.962 216.309 417.427 218.023 404.612C219.339 394.922 223.574 385.863 230.163 378.638C274.041 330.679 410.673 317.807 473.805 314.956C475.94 306.224 478.193 301.25 482.29 293.302C454.851 286.568 399.349 281.045 378.036 263.339C368.349 255.449 362.25 243.989 361.116 231.548C358.284 199.126 385.001 172.745 416.487 170.206ZM769.318 766.568C772.062 763.207 774.965 758.59 775.308 754.239C776.264 742.124 775.985 729.309 775.985 717.136L775.954 652.406L775.847 448.266C685.908 494.503 564.27 499.771 464.297 496.032C398.304 493.564 305.246 480.872 248.064 447.766L247.995 667.906L247.965 726.639C247.961 733.406 247.424 749.095 248.415 755.049C250.996 770.55 276.687 782.306 289.675 787.288C361.118 814.692 439.038 821.68 515.016 821.986C587.593 821.623 663.234 814.047 731.347 788.525C743.23 783.976 760.132 775.948 768.882 767.02L769.318 766.568ZM485.038 432.616C495.492 427.296 505.758 421.612 515.815 415.575C549.565 394.201 583.066 371.967 613.21 345.656C630.877 330.236 650.801 313.51 656.095 289.541C658.952 276.944 656.619 263.727 649.622 252.87C640.534 238.704 627.084 230.732 610.183 231.681C603.217 232.926 598.196 234.227 592.076 238.023C582.517 243.951 574.152 252.4 565.198 259.577C549.381 272.255 523.07 287.945 511.382 303.828C495.754 325.064 503.488 361.702 499.853 386.725C497.046 406.051 493.264 415.463 485.038 432.616ZM247.361 406.502C253.675 416.442 268.693 425.408 279.367 429.763C297.17 437.761 316.36 442.857 335.204 447.875C352.396 452.453 370.63 455.269 388.227 457.859C396.075 459.014 404.409 459.331 411.853 456.306C433.983 447.339 452.901 430.18 462.601 408.2C471.589 387.91 470.684 368.114 470.74 346.732L470.364 346.281L470.063 346.299C443.026 348.084 415.794 349.758 388.939 353.472C355.452 358.104 273.733 374.244 251.617 399.85C249.881 401.86 248.526 404.121 247.361 406.502ZM495.861 236.642C489.822 238.03 486.029 239.915 482.62 245.347C473.182 260.382 492.978 264.959 503.378 266.842L508.28 263.957C513.955 260.141 520.295 255.004 525.6 251.617C517.688 243.919 509.312 236.572 497.43 236.609C496.907 236.612 496.384 236.623 495.861 236.642ZM468.422 217.047C456.678 209.754 432.915 198.783 418.788 200.248C409.428 201.56 401.6 205.857 395.953 213.457C373.939 243.08 424.174 250.663 442.387 254.426L451.542 255.884C451.064 241.346 451.653 234.527 462.117 222.804C463.98 220.717 466.148 218.712 468.422 217.047ZM646.855 355.347C614.469 388.356 563.725 422.092 524.034 445.8C515.302 451.015 496.782 461.474 487.565 465.529C505.078 465.536 522.073 466.234 539.859 466.017C564.474 465.594 589.049 463.872 613.482 460.858C649.968 456.279 756.712 440.47 775.761 406.546C764.727 380.815 699.262 366.308 674.42 360.66C666.698 358.905 654.738 356.128 646.855 355.347Z"/></svg>